<svg xmlns="http://www.w3.org/2000/svg" width="42" height="47" viewBox="-12 -8 60 60"><path d="M10.5 33.6A1.5 1.5 0 018.9 35a1.5 1.5 0 01-1.5-1.5A1.5 1.5 0 019 32a1.5 1.5 0 011.5 1.5z" fill="#3e3e3e"/><path d="M15.8 8.7A1.7 1.7 0 0017.5 7V4a1.7 1.7 0 00-1.7-1.7 1.7 1.7 0 00-1.6 1.6V7a1.7 1.7 0 001.6 1.7zM20.9 12a1.6 1.6 0 00.2 0 1.8 1.8 0 001.6-1.7A8 8 0 0129.5 4a1.9 1.9 0 001.6-2.1A1.8 1.8 0 0029.3 0a11.6 11.6 0 00-9.9 9.8A2 2 0 0021 12zM5.6 3.5c1 0 2 1.5 2 3.6a1.6 1.6 0 001.6 1.6A1.6 1.6 0 0010.8 7C10.8 3.3 8.5.3 5.6.3A1.6 1.6 0 004 1.9a1.6 1.6 0 001.6 1.6zM30.6 32l-1-2.4-1-2.4-1-2.4-1-2.5-.3-.7a1.1 1.1 0 00-.3-.3 1.1 1.1 0 00-.9-.5 1.2 1.2 0 00-1 .8L22.6 25l-3 7a1.3 1.3 0 000 .5 1.1 1.1 0 00.3.8 1.2 1.2 0 001.4.2 1.4 1.4 0 00.5-.6l.8-1.9h5l.3 1 .4 1a1 1 0 00.4.5 1.2 1.2 0 00.7.2 1.2 1.2 0 00.8-.4 1.2 1.2 0 00.4-.8 1.6 1.6 0 00-.1-.5zm-7-3.2l1.4-3.6.2-.4 1.6 4z" fill="#328ccb"/><path d="M32.5 14.9H18v-2a2.8 2.8 0 00-3-2.9H9.2a2.8 2.8 0 00-2.8 2.8v9.4l-1.8 3.6a1.4 1.4 0 00-.2.5l-4 8a4.5 4.5 0 002 6 4.6 4.6 0 002.1.5h15.3a4.5 4.5 0 00.6 0h12.1a4 4 0 004-4v-18a4 4 0 00-4-4zm-23 8.8a2.9 2.9 0 00.3-1.3V22h.3a1.7 1.7 0 001.7-1.6 1.7 1.7 0 00-1.7-1.7h-.3v-1.1h.3a1.7 1.7 0 001.7-1.7 1.7 1.7 0 00-1.7-1.6h-.3v-.8h4.7v2.8A1.7 1.7 0 0013 18c0 .8 1 1.4 1.7 1.6V26a8.9 8.9 0 00-2.2-.7 5.8 5.8 0 00-2.7.5 2.5 2.5 0 01-1.2.2h-.2zm-5 14.1c-.6 0-1.1-.8-1.2-1.4a1.1 1.1 0 01.2-.5L6.8 29a5 5 0 001.4.3 5.7 5.7 0 002.7-.4 2.4 2.4 0 011.2-.2 2 2 0 011 .3 8.3 8.3 0 001.5.4v7.2c0 .8-.4 1-1.3 1.1zm29-1a1 1 0 01-1 1H18.2a1 1 0 01-1-1v-18a1 1 0 011-1h14.3a1 1 0 011 1z" fill="#3e3e3e"/></svg>