<svg xmlns="http://www.w3.org/2000/svg" width="60" height="60"><path d="M42 12H26.9a3.8 3.8 0 00-3.9 3.8v.5h-5a3.8 3.8 0 00-3.9 3.8v24a3.8 3.8 0 003.8 3.9H34a3.8 3.8 0 003.9-3.8v-.5H42a3.8 3.8 0 003.8-3.8v-24A3.8 3.8 0 0042 12zm-7.2 32.2a.8.8 0 01-.9.8H18a.8.8 0 01-.9-.8v-24a.8.8 0 01.8-.9H34a.8.8 0 01.9.8zm8.1-4.3a.9.9 0 01-.8.8h-4.3v-2.4h1.7a1.5 1.5 0 001.5-1.5 1.5 1.5 0 00-1.5-1.5h-1.7v-3h1.7a1.5 1.5 0 001.5-1.5 1.5 1.5 0 00-1.5-1.5h-1.7v-3h1.7A1.5 1.5 0 0041 25a1.5 1.5 0 00-1.5-1.5h-1.7v-3h1.7A1.5 1.5 0 0041 19a1.5 1.5 0 00-1.5-1.5h-2.9a3.9 3.9 0 00-2.7-1.1h-8v-.5a.8.8 0 01.9-.8H42a.9.9 0 01.8.8z" fill="#3e3e3e"/><path d="M34 19.3H17.7a.8.8 0 00-.8.8v24a.8.8 0 00.8.9H34a.8.8 0 00.9-.8v-24a.8.8 0 00-.9-.9zm-1.4 20.6a1.5 1.5 0 01-1 .5 1.6 1.6 0 01-.9-.3 1.3 1.3 0 01-.5-.7l-.5-1.1-.5-1.3H23l-1 2.4a1.7 1.7 0 01-.5.7 1.5 1.5 0 01-1.9-.2 1.4 1.4 0 01-.4-1 1.7 1.7 0 01.1-.7l3.7-8.8 1.8-4.1a1.5 1.5 0 011.2-1 .2.2 0 01.2 0 1.4 1.4 0 011.1.5 1.4 1.4 0 01.3.5l.3.8 1.4 3.2 1.3 3 1.2 3 1.2 3a2 2 0 01.2.6 1.5 1.5 0 01-.5 1z" fill="none"/><path d="M33 38.3l-1.3-3-1.2-3-1.3-3-1.3-3.2-.4-.8a1.4 1.4 0 00-.3-.5 1.4 1.4 0 00-1.1-.5.2.2 0 00-.2 0 1.5 1.5 0 00-1.2 1l-1.8 4-3.7 9a1.7 1.7 0 00-.1.6 1.4 1.4 0 00.4 1 1.5 1.5 0 001.9.2 1.7 1.7 0 00.6-.7l1-2.4h6.2l.5 1.3.5 1.1a1.3 1.3 0 00.5.7 1.6 1.6 0 00.9.3 1.5 1.5 0 001-.5 1.5 1.5 0 00.5-1 2 2 0 00-.2-.6zm-9-4l2-4.6.1-.4 2 5z" fill="#328ccb"/><path fill="none" opacity=".6" d="M0 0h60v60H0z"/></svg>