<svg xmlns="http://www.w3.org/2000/svg" width="60" height="60"><path d="M49.9 33.3a.2.2 0 00-.1-.1.4.4 0 00-.1-.2l-.1-.1-.5-.5a20.5 20.5 0 00-7.2-4.6 2.4 2.4 0 01-1.3-1.1 1.6 1.6 0 010-1.3l1-2.3a1 1 0 000-.5 2 2 0 00.3-.5 2 2 0 000-1.7c-.6-1-1.8-1.2-3.4-1.5a17.7 17.7 0 01-4-1 12.2 12.2 0 01-3-2c-.8-.5-1.5-1.1-2.5-.8a2 2 0 00-1.3 1.2 3.6 3.6 0 00-.2.6 1.8 1.8 0 00-.2.4L22 29.9v.2l-.5 1.2a4.2 4.2 0 000 3.2 4 4 0 002.3 2.2l19.9 8a5.4 5.4 0 002 .5 5.3 5.3 0 005-3.4.3.3 0 000-.2 8.1 8.1 0 00-1-8.3zM33.4 20.6a20.4 20.4 0 004.2 1.2 7.3 7.3 0 01-2.3.3 5.8 5.8 0 01-2.3-.4 3.9 3.9 0 01-1.7-1.2 3.4 3.4 0 01-.7-1.1l-.1-.4a14.3 14.3 0 002.9 1.6zM46.7 42a2.3 2.3 0 01-1.8 0L25 33.9a1 1 0 01-.6-.6 1 1 0 010-.9l22.8 9.3a2 2 0 01-.5.3zm1.8-3.3a1.7 1.7 0 010 .3l-23-9.4.1-.2 3-7.4a7.2 7.2 0 003.2 2.5 9.2 9.2 0 003.5.6 10.3 10.3 0 002.3-.2 4.3 4.3 0 000 2.2 4.9 4.9 0 00-.5 0 4.7 4.7 0 00-3.3 2.2 1.5 1.5 0 00.5 2 1.6 1.6 0 00.8.2 1.5 1.5 0 001.2-.7 1.6 1.6 0 011.2-.7 2.3 2.3 0 011.5.3.7.7 0 00.3.1 7.7 7.7 0 00-.6.8 1.5 1.5 0 00.5 2 1.3 1.3 0 00.8.2 1.5 1.5 0 001.3-.7 1.6 1.6 0 011.1-.7 2.3 2.3 0 011.5.3 1 1 0 00.4.2 3.3 3.3 0 00-.6.7 1.6 1.6 0 00.4 2.1 1.7 1.7 0 00.8.2 1.4 1.4 0 001.2-.7 2.2 2.2 0 011.1-.2l.2.3a4.8 4.8 0 011.1 3.7zM31.9 41.6l-21.7-9a1.5 1.5 0 00-1.4.2 1.5 1.5 0 00-.6 1.2v9.7a1.5 1.5 0 001.5 1.5h21.5a1.9 1.9 0 001.8-2 1.9 1.9 0 00-1.1-1.6zm-20.7.6v-6l14.2 6z" fill="#3e3e3e"/><path d="M15.7 25.6l3.9 1.6a1.5 1.5 0 00.6.1 1.5 1.5 0 001.5-1.5 1.5 1.5 0 00-1-1.4L17 22.8a1.5 1.5 0 00-2 .8 1.5 1.5 0 00.8 2zM20 21.2l1.5.6a1.5 1.5 0 002-.8 1.5 1.5 0 00-.9-2l-1.5-.6a1.5 1.5 0 00-2 .8 1.5 1.5 0 00.8 2zM11.5 30l6.3 2.6a1.5 1.5 0 00.6.1 1.5 1.5 0 001.5-1.5 1.5 1.5 0 00-1-1.3l-6.3-2.7a2.4 2.4 0 01-1.5-3 1.5 1.5 0 00-.9-1.9 1.5 1.5 0 00-1.9 1 5.3 5.3 0 003.2 6.7z" fill="#328ccb"/><path fill="none" opacity=".6" d="M0 0h60v60H0z"/></svg>