<svg xmlns="http://www.w3.org/2000/svg" width="60" height="60"><path d="M23.4 20.3a2.5 2.5 0 00-1.5-.8l-1.4-.2-.7-1.3a2.5 2.5 0 00-2.2-1.4 2.5 2.5 0 00-2.3 1.4l-.7 1.3-1.4.2a2.5 2.5 0 00-1.5.8A2.5 2.5 0 0011 22a2.6 2.6 0 00.8 1.8l1 1-.2 1.4a2.5 2.5 0 002 3h.5a2.6 2.6 0 001.2-.3l1.3-.7 1.2.7a2.6 2.6 0 003.5-1 2.5 2.5 0 00.2-1.7l-.2-1.4 1-1a2.6 2.6 0 000-3.6zm-3.8 3a1.5 1.5 0 00-.4 1.3l.2 1.3-1.1-.6a1.6 1.6 0 00-1.4 0l-1.2.6.2-1.3a1.5 1.5 0 00-.4-1.3l-1-1 1.3-.1a1.5 1.5 0 001.2-.8l.6-1.2.5 1.1a1.4 1.4 0 001.2.9l1.3.2z" fill="#328ccb"/><path d="M36 14.6a2.5 2.5 0 00-1.3-.7l-1.4-.2-.7-1.3a2.5 2.5 0 00-1.1-1.1 2.5 2.5 0 00-3.4 1.1l-.7 1.3-1.4.2a2.5 2.5 0 00-1.5.8 2.5 2.5 0 00-.7 1.8 2.5 2.5 0 00.8 1.8l1 1-.2 1.4a2.6 2.6 0 002 3h.5a2.7 2.7 0 001.2-.3l1.3-.7 1.2.7a2.5 2.5 0 002 .2 2.6 2.6 0 001.7-2.9l-.2-1.4 1-1a2.6 2.6 0 000-3.7zm-3.6 3A1.5 1.5 0 0032 19l.2 1.3-1.2-.6a1.5 1.5 0 00-1.4 0l-1.1.6.2-1.3a1.5 1.5 0 00-.4-1.3l-1-1 1.3-.1a1.5 1.5 0 001.2-.8l.5-1.2.6 1.2a1.5 1.5 0 001.2.8l1.3.2zM49 20.2a2.4 2.4 0 00-1.5-.7l-1.4-.2-.7-1.3a2.6 2.6 0 00-1.1-1.2 2.5 2.5 0 00-3.4 1.2l-.7 1.3-1.4.2a2.5 2.5 0 00-1.5.8 2.5 2.5 0 00-.7 1.8 2.4 2.4 0 00.8 1.7l1 1-.2 1.5a2.6 2.6 0 002 3A2.5 2.5 0 0042 29l1.2-.7 1.3.7a2.5 2.5 0 002 .2 2.5 2.5 0 001.5-1.3 2.8 2.8 0 00.2-1.6l-.2-1.4 1-1a2.5 2.5 0 000-3.7zm-3.8 3a1.5 1.5 0 00-.4 1.4l.2 1.3-1.2-.6a1.6 1.6 0 00-1.4 0l-1.1.6.2-1.3a1.5 1.5 0 00-.4-1.3l-1-1 1.3-.1a1.5 1.5 0 001.2-.8l.5-1.2.6 1.1a1.5 1.5 0 001.2.9l1.3.2zM32.6 25H28c-1.5 0-2.8 1.5-2.8 3.4v16.4c0 2 1.3 3.5 2.8 3.5h4.5c1.5 0 2.8-1.6 2.8-3.5V28.4c0-2-1.3-3.5-2.8-3.5zm-.2 19.8a1.2 1.2 0 01-.1.5h-3.9a1 1 0 010-.5V28.4a1.2 1.2 0 010-.5h3.9a1.4 1.4 0 010 .5zM19.8 30h-4.5a3 3 0 00-2.8 3v12.3a3 3 0 002.8 3h4.5a3 3 0 002.8-3V33a3 3 0 00-2.8-3zm-.2 15.3h-4V33h4zM45.4 31.3h-4.5a2.8 2.8 0 00-2.8 3v11a2.9 2.9 0 002.8 3h4.5a2.9 2.9 0 002.8-3v-11a2.9 2.9 0 00-2.8-3zm-.2 14h-4v-11h4z" fill="#3e3e3e"/><path fill="none" opacity=".6" d="M0 0h60v60H0z"/></svg>