<svg xmlns="http://www.w3.org/2000/svg" width="50" height="50"><g stroke-width=".3"><path d="M10.4 23.3v-4.7A10 10 0 0115 9.8a14.1 14.1 0 013.2-1.4c.5-.1.8-.3 1-.9a6.1 6.1 0 015.4-4.2 6.1 6.1 0 016.2 4.1c.2.6.5.7 1 .9 1.2.3 4.6 1.6 5.9 3.3s-.4 1.3-.7 1.2a11.2 11.2 0 00-8.1-3.4h-8a8.9 8.9 0 00-9.2 9v5a4 4 0 003 3.8c.6.1.9 0 1.4-.4 1.2-1 1-2.3 1-3.5a8.3 8.3 0 010-1.7 2.7 2.7 0 013-2.1 2.8 2.8 0 012.6 2.6v2.8a3.7 3.7 0 00.3 1.3c.3 1.1 1 1.1 1 1.1h2.7c.2 0 .8-.7 1-.9.5-1 .4-2.2.4-3.8a3 3 0 011.3-2.7 2.8 2.8 0 014.3 2.3 5.9 5.9 0 010 1.7c.3 2.7.6 2.3 1.3 3.2.1.2.7.2 1 0a3.6 3.6 0 002.9-3 44.7 44.7 0 00-.2-7.8c-.7-2.2-.4-1.7-1.7-3.5-.2-.4-.4-.9 0-1.2s.8 0 1.2.4a10 10 0 012.1 6.5v5l1.1.1a2.4 2.4 0 012.6 2.3 2.3 2.3 0 00.7 1.3 5.2 5.2 0 01.9 2.1 8 8 0 010 2 3.9 3.9 0 00.7 2.8 3.2 3.2 0 01.4 1.9v5.8a4.6 4.6 0 01-5 5H8.2A4.2 4.2 0 014 42.5v-7.1a2.4 2.4 0 01.4-1.5 3 3 0 00.7-2.3v-2.2a3.9 3.9 0 011.2-2.6c.6-.7.6-2 1.3-2.6.6-.6 1.7-.6 2.7-1zm1.8 22.2c-1.4-2.1-1.8-3-1.8-4.5 0-.5 0-1.2.7-1.2s.6.6.6 1.1c.1 3 1.8 4.6 4.7 4.6h18c3 0 4.6-1.7 4.6-4.7V26.9a13.8 13.8 0 01-1.5 1 5 5 0 01-1.7.6 3.2 3.2 0 00-2.3 1.8A3 3 0 0131 32a3 3 0 01-2.7-1.7 4.2 4.2 0 00-1.5-1.6 4.2 4.2 0 00-2.8-.2 4.5 4.5 0 00-1.4 1.8A2.8 2.8 0 0120 32a3 3 0 01-2.7-1.8c-.4-.6-1-1.4-1.6-1.5a7.8 7.8 0 01-3.9-1.9v13.4c0 .4 0 0-.7 0s-.6 1-.6.4v-6.9H7.1a1.9 1.9 0 00-1.8 2v6.7a3 3 0 002.8 3c1.3.2 2.7.1 4.1.1zm28.1-11.7v5.7c.1 2.2 0 4.3-2 6H42a4.8 4.8 0 00.9 0 3.2 3.2 0 002.6-3v-6.9a1.8 1.8 0 00-1.6-1.8h-3.5zm-30-1.3v-4.7H7.9A1.2 1.2 0 006.5 29v3.6zm30-4.7v4.6h4v-3.2a1.3 1.3 0 00-1.4-1.4h-2.5zM20.5 8a2 2 0 002.3-.7 3 3 0 014.7 0c.7 1 1.4.8 2.2.7A4.8 4.8 0 0025 4.5 4.7 4.7 0 0020.4 8zm1 17.7v-3.4a1.5 1.5 0 00-1.4-1.5 1.4 1.4 0 00-1.6 1.2v3.7zm11 0v-3.3a1.5 1.5 0 00-1.4-1.6 1.5 1.5 0 00-1.6 1.4v3.4zm-12.5 3h0a9.5 9.5 0 001.9-.1c.4 0 1-.4 1-.8s-.6-.8-.9-.8a30.8 30.8 0 00-4 0c-.4 0-1 .5-.9.8s.6.7 1 .8a10.3 10.3 0 001.9 0zm10.9 0a12.1 12.1 0 002.1-.1c.3 0 .9-.4.9-.8s-.5-.8-.8-.8a36 36 0 00-4.2 0c-.3 0-.8.4-.8.8s.5.7.9.8a9.3 9.3 0 001.9 0zM10.4 25c-2-.2-2.3 0-2.3 1.4h2.3zm30 0v1.4h2.2c0-1.3-.3-1.6-2.2-1.4zM21 30h-2.5c1 1 1.7 1 2.5 0zm8.5 0c1 1 1.8 1 2.5 0zM26.3 8a1.8 1.8 0 00-2.5 0z" fill="#3e3e3e" stroke="#3e3e3e"/><path d="M25.1 17a2.5 2.5 0 01-1.9-.8 1 1 0 01-.1-1 1 1 0 011-.1 1 1 0 001.6 0 .8.8 0 011.1 0c.5.5-.2 1-.2 1a2 2 0 01-.6.5 4 4 0 01-.9.3z" fill="#328ccb" stroke="#328ccb"/><path d="M25.4 44H20a3.6 3.6 0 01-4-3.9v-2.6a3.5 3.5 0 013.5-3.5h11.8a3.5 3.5 0 013.4 3.4v2.8A3.6 3.6 0 0131 44h-5.5zm0-1.2H31a2.2 2.2 0 002.4-2.2 22.6 22.6 0 000-3.2 2.2 2.2 0 00-2.2-2.2H20c-1.9 0-2.7.9-2.7 2.7v2.4a2.3 2.3 0 002.5 2.5h5.5z" fill="#3e3e3e" stroke="#3e3e3e"/><path d="M25.4 36.6h5.5c.3 0 1 0 1 .5s-.6.6-1 .6H20c-.4 0-1 0-1-.6s.6-.5 1-.5h5.5z" fill="#3e3e3e" stroke="#3e3e3e"/><path d="M18.5 13a2 2 0 011.5.9.5.5 0 01-.4.8 2.3 2.3 0 00-1.3-.6c-.6 0-.9.7-1.3.6a.5.5 0 01-.2-1 2.2 2.2 0 011.7-.7zM32.1 13a2 2 0 011.5.9.5.5 0 01-.4.8 2.3 2.3 0 00-1.3-.6c-.6 0-.9.7-1.3.6a.5.5 0 01-.2-1A2.2 2.2 0 0132 13z" fill="#328ccb" stroke="#328ccb"/></g><path fill="none" d="M0 0h50v50H0z"/></svg>
