<svg xmlns="http://www.w3.org/2000/svg" width="60" height="60"><path d="M45.9 24.1c-.4-.4-1.5-1.4-5.7-2.5a10 10 0 00-20.1 0c-3 .7-4.6 1.2-6 2.5a10 10 0 00-2.9 6.8 9.7 9.7 0 009.8 9.6h18a9.7 9.7 0 009.8-9.6 9.4 9.4 0 00-3-6.8z" fill="#fff"/><path d="M39 41.7H21a11 11 0 01-11-10.8v-.1a11.2 11.2 0 013.3-7.6c1.5-1.4 3.2-2 5.7-2.7A11.3 11.3 0 0130 11a11.5 11.5 0 0111.2 9.6c3.5 1 4.8 2 5.4 2.6a10.6 10.6 0 013.3 7.7 11 11 0 01-11 10.8zM12.5 30.9a8.4 8.4 0 008.5 8.2h17.8a8.4 8.4 0 008.5-8.2A8 8 0 0045 25a13 13 0 00-5.2-2.2l-.8-.2-.1-1a8.9 8.9 0 00-8.8-8 8.8 8.8 0 00-8.7 8v.9l-1 .2c-3 .8-4.2 1.2-5.4 2.3a8.6 8.6 0 00-2.4 5.8z" fill="#3e3e3e"/><path d="M41 33.5v10.7a2.8 2.8 0 01-2.4 3H24.2a2.8 2.8 0 01-2.5-3V29.6a2.8 2.8 0 012.5-3h9.6z" fill="#fff"/><path d="M38.6 48.5H24.2a4 4 0 01-3.8-4.3V29.6a4 4 0 013.8-4.2h10l8 7.6v11.2a4 4 0 01-3.6 4.3zM24.2 27.9c-.7 0-1.3.8-1.3 1.7v14.6c0 1 .6 1.8 1.3 1.8h14.4c.6 0 1.2-.8 1.2-1.8V34.1l-6.5-6.2z" fill="#3e3e3e"/><path d="M40.3 35H34a1.2 1.2 0 01-1.3-1.3v-6.5a1.2 1.2 0 012.1-.8l6.4 6.4a1.2 1.2 0 01-.9 2.1zm-5.1-2.5h2.2l-2.2-2.3z" fill="#3e3e3e"/><path fill="#fff" stroke="#3e3e3e" d="M31 38h5.3"/><path d="M36.3 39.2H31a1.2 1.2 0 010-2.4h5.1a1.2 1.2 0 110 2.4z" fill="#3e3e3e"/><path fill="#fff" stroke="#3e3e3e" d="M26.1 38h.9"/><path d="M27 39.2h-.9a1.2 1.2 0 110-2.4h1a1.2 1.2 0 110 2.4z" fill="#3e3e3e"/><g><path fill="#fff" stroke="#3e3e3e" d="M31 41.7h5.3"/><path d="M36.3 43H31a1.2 1.2 0 010-2.5h5.1a1.2 1.2 0 010 2.4z" fill="#3e3e3e"/></g><g><path fill="#fff" stroke="#3e3e3e" d="M26.1 41.7h.9"/><path d="M27 43h-.9a1.2 1.2 0 010-2.5h1a1.2 1.2 0 010 2.4z" fill="#3e3e3e"/></g><g fill="#328ccb"><path d="M30.8 15.6a5.7 5.7 0 015.5 4.4M36.3 21.2a1.2 1.2 0 01-1.2-1 4.4 4.4 0 00-4.3-3.4 1.2 1.2 0 010-2.4 6.9 6.9 0 016.7 5.3 1.2 1.2 0 01-1.2 1.5z"/></g><path fill="none" opacity=".6" d="M0 0h60v60H0z"/></svg>