<svg xmlns="http://www.w3.org/2000/svg" width="60" height="60"><g transform="translate(-40.2 -362)"><path d="M74.3 376.7a1.5 1.5 0 00-1.5 1.5 1.5 1.5 0 001.5 1.5 1.9 1.9 0 011.9 1.9V405a1.9 1.9 0 01-1.9 2H58a1.9 1.9 0 01-1.8-2v-23.4a1.9 1.9 0 011.8-1.9 1.5 1.5 0 001.5-1.5 1.5 1.5 0 00-1.5-1.5 4.9 4.9 0 00-4.8 4.9V405a4.9 4.9 0 004.8 5h16.3a4.9 4.9 0 004.9-5v-23.4a4.9 4.9 0 00-4.9-4.9z" fill="#3e3e3e"/><path d="M62 379.7h8.4a1.5 1.5 0 001.5-1.5 1.5 1.5 0 00-1.5-1.5H70v-1.2a1.5 1.5 0 00-1.5-1.5 1.5 1.5 0 00-1.5 1.5v1.2h-1.7v-1.2a1.5 1.5 0 00-1.5-1.5 1.5 1.5 0 00-1.5 1.5v1.2H62a1.5 1.5 0 00-1.5 1.5 1.5 1.5 0 001.5 1.5z" fill="#328ccb"/><path d="M73 387a1.5 1.5 0 01-1.6 1.5h-5.7a1.5 1.5 0 01-1.5-1.5 1.5 1.5 0 011.5-1.5h5.7A1.5 1.5 0 0173 387z" fill="#3e3e3e"/><circle cx="1.5" cy="1.5" r="1.5" transform="translate(59 385.5)" fill="#3e3e3e"/><path d="M73 393.6a1.5 1.5 0 01-1.6 1.5h-5.7a1.5 1.5 0 01-1.5-1.5 1.5 1.5 0 011.5-1.5h5.7a1.5 1.5 0 011.5 1.5z" fill="#3e3e3e"/><circle cx="1.5" cy="1.5" r="1.5" transform="translate(59 391.8)" fill="#3e3e3e"/><path d="M73 400.3a1.5 1.5 0 01-1.6 1.5h-5.7a1.5 1.5 0 01-1.5-1.5 1.5 1.5 0 011.5-1.5h5.7a1.5 1.5 0 011.5 1.5z" fill="#3e3e3e"/><circle cx="1.5" cy="1.5" r="1.5" transform="translate(59 398.8)" fill="#3e3e3e"/><path d="M85 383.4a1.5 1.5 0 00-1.4 1.4v22.3a1.5 1.5 0 001.5 1.4 1.5 1.5 0 001.5-1.4v-22.3a1.5 1.5 0 00-1.5-1.4zM87 378.8a2 2 0 01-.5 1.5l-.3.2a1.8 1.8 0 01-.4.2 2.4 2.4 0 01-.3.1 2.6 2.6 0 01-.4 0 2 2 0 01-.8-.1 2 2 0 01-.6-.4 2 2 0 01-.5-.7 2.2 2.2 0 01-.1-.8 2 2 0 011.2-1.8 2 2 0 011.2-.1 1.3 1.3 0 01.3.1 1.1 1.1 0 01.4.2 1.8 1.8 0 01.3.2 1.1 1.1 0 01.2.3 3.2 3.2 0 01.2.4 2.4 2.4 0 01.1.3 1 1 0 010 .4z" fill="#3e3e3e"/></g><path fill="none" opacity=".6" d="M0 0h60v60H0z"/></svg>