<svg xmlns="http://www.w3.org/2000/svg" width="60" height="60"><path d="M31.4 42.3l-5.3-10.8V23a2.5 2.5 0 00-2.5-2.5h-5.3a2.5 2.5 0 00-2.5 2.5v8.5l-1.6 3.3a1.3 1.3 0 00-.2.4l-3.6 7.1a4 4 0 001.8 5.4 4 4 0 001.8.4h13.8a4 4 0 003.4-1.9 4 4 0 00.2-3.9zm-12.9-9.6a2.6 2.6 0 00.3-1.1v-.3h.3a1.5 1.5 0 001.5-1.5 1.5 1.5 0 00-1.5-1.5h-.3v-1h.3a1.5 1.5 0 001.5-1.5 1.5 1.5 0 00-1.5-1.5h-.3v-.8H23v2.6a1.5 1.5 0 00-1.5 1.5 1.5 1.5 0 001.5 1.5v2.5a2.5 2.5 0 00.2 1l1.1 2.3a1.7 1.7 0 01-.7.2 1.6 1.6 0 01-.7-.3 5 5 0 00-1.9-.5 5.2 5.2 0 00-2.4.4 2.3 2.3 0 01-1.1.2h-.2zm10.2 12a1 1 0 01-.9.4H14a1 1 0 01-1-1 1 1 0 01.1-.4l3-6.1a4.5 4.5 0 001.2.3 5.1 5.1 0 002.5-.4 2.2 2.2 0 011-.2 1.8 1.8 0 01.9.2 4 4 0 002 .6 4.8 4.8 0 002-.5l3 6a1 1 0 010 1z" fill="#3e3e3e"/><path d="M19.4 41a1.3 1.3 0 01-1.3 1.4 1.3 1.3 0 01-1.4-1.3 1.4 1.4 0 011.4-1.4 1.4 1.4 0 011.3 1.4zM24.8 41a1.3 1.3 0 01-1.3 1.4 1.3 1.3 0 01-1.4-1.3 1.4 1.4 0 011.3-1.4 1.3 1.3 0 011.4 1.4z" fill="#3e3e3e"/><path d="M21.2 18.2a1.5 1.5 0 001.5-1.5V14a1.5 1.5 0 00-1.5-1.5 1.5 1.5 0 00-1.5 1.5v2.7a1.5 1.5 0 001.5 1.5zM25.7 20.2a1.6 1.6 0 00.2 0 1.5 1.5 0 001.5-1.2c.4-2.4 3.2-4.7 6.1-5a1.5 1.5 0 001.4-1.6 1.5 1.5 0 00-1.7-1.4c-4.3.4-8.2 3.7-8.7 7.5a1.5 1.5 0 001.2 1.7zM13.1 14.4c1 0 2 1.4 2 3.4a1.5 1.5 0 001.4 1.5 1.5 1.5 0 001.5-1.5c0-3.6-2.1-6.4-4.9-6.4a1.5 1.5 0 00-1.5 1.5 1.5 1.5 0 001.5 1.5z" fill="#328ccb"/><path d="M49.7 42.6l-4.4-10.4a9.2 9.2 0 001.7-2.9 9.8 9.8 0 00-.1-7.6 10 10 0 00-13-5.1 10 10 0 00-5.2 13 10 10 0 009 6L42.2 46a4.2 4.2 0 003.8 2.4 4.2 4.2 0 001.6-.3 4.1 4.1 0 002.1-5.4zm-11-10a5.5 5.5 0 01-1.6 0 6.9 6.9 0 01-5.7-4.1 7 7 0 013.6-9.2 6.9 6.9 0 012.8-.5 7 7 0 016.4 4.1 6.8 6.8 0 010 5.3 6 6 0 01-.8 1.6 5.8 5.8 0 01-1 1 6.8 6.8 0 01-1.8 1.3 7.1 7.1 0 01-2 .5zm7.7 12.6a1.1 1.1 0 01-1.5-.5l-4.1-9.5a7.9 7.9 0 001-.4 6.1 6.1 0 001-.5l4.2 9.5a1.1 1.1 0 01-.6 1.4z" fill="#3e3e3e"/><path d="M39.7 31a1 1 0 00.3 0 3.3 3.3 0 00.6-.3 4.7 4.7 0 001.6-1.4 5.1 5.1 0 00.5-.8 1.5 1.5 0 00-.6-2 1.5 1.5 0 00-2 .6H40a1.8 1.8 0 01-1 1 1.9 1.9 0 01-1.4 0 1.5 1.5 0 00-2 .7 1.5 1.5 0 00.7 2 4.5 4.5 0 001.3.4 4.3 4.3 0 00.7 0 4.3 4.3 0 001.4-.2z" fill="#328ccb"/><path fill="none" opacity=".6" d="M0 0h60v60H0z"/></svg>