<svg xmlns="http://www.w3.org/2000/svg" width="60" height="60" viewBox="1 1 56 56"><style>.prefix__shp0{fill:none}.prefix__shp1{fill:#3e3e3e}.prefix__shp3{fill:#328ccb}</style><path class="prefix__shp0" d="M-5-11h69a6 6 0 016 6v69a6 6 0 01-6 6H-5a6 6 0 01-6-6V-5a6 6 0 016-6z"/><path fill-rule="evenodd" class="prefix__shp1" d="M49.4 31.8l1 1.7.5 2c.1.7.1 1.3-.1 2l-.5 1.9-.1.1v.2c-.2.6-.6 1.2-1.1 1.6-.4.5-1 .9-1.6 1.1-.5.3-1.2.4-1.9.4a4 4 0 01-1.8-.4l-18.4-7.5-.7-.3-.6-.6-.5-.5-.3-.7-.3-.7v-1.5l.3-.8.4-1v-.2l4.8-11.7v-.1l.1-.1v-.1l.1-.1v-.1l.1-.1V16l.2-.4.3-.3c.1-.1.2-.3.4-.3l.3-.2c1-.2 1.6.3 2.4.9l.6.5.7.4c.3.2.5.4.8.4l.7.4.9.3.9.3 1 .2.9.2c1.5.3 2.6.5 3.1 1.4l.1.5.1.6-.2.5-.2.5v.2l-.1.1v.1l-.9 2.2-.1.3v.2l.1.4.1.2.1.4c.2 0 .3.2.4.3l.3.2.3.1 1.8.8 1.8 1 1.6 1.2 1.5 1.4c.1 0 .3.2.3.4l.2.1v.1h.1v.1h.1v.1zM34 20l-.7-.3-.7-.4c-.2-.1-.4-.3-.7-.3l-.6-.5.1.4.2.2.1.3.2.3.2.3.3.3.4.3.4.2.4.2.5.2.6.1.5.1h1.1l.6-.1.5-.1.5-.2-1-.1-1-.3-1-.3-.9-.3zm12.3 19.9l.1-.1h.1l.2-.1.1-.1-21-8.6-.1.4.1.4.2.3.4.2 18.4 7.5.4.2h.8l.4-.2v.1zm1.8-3.1v-.9L48 35c0-.3-.2-.6-.3-.8l-.5-.8-.2-.3h-.3l-.2.1h-.3l-.2.1-.2.3-.3.2-.3.2h-.7l-.2-.1-.2-.1-.4-.4-.2-.5v-.6l.2-.5.1-.2.2-.2v-.1l.3-.2-.1-.1H44l-.4-.2-.3-.1-.3-.1-.5.1h-.3l-.2.2-.3.1-.2.3-.2.3-.3.2-.4.2h-.7l-.2-.1-.1-.1-.4-.4c-.2-.1-.2-.3-.2-.4v-.6l.1-.5.5-.7h-.1l-.1-.1-.4-.1-.3-.2H38l-.3.1-.3.1-.3.2-.2.2-.2.3-.3.3H36l-.3.1h-.2l-.1-.1H35l-.4-.4-.3-.6v-.5l.2-.5.5-.7c.3-.3.5-.5.8-.6l.8-.5.9-.2h.5l-.1-.5v-1l.1-.5h-.5l-.5.2h-2l-.7-.2-.8-.1-.8-.3-.9-.4-.8-.6-.7-.6-.6-.7-2.7 6.8-.2.3L48.1 37v-.2h.1z"/><path class="prefix__shp0" d="M33.7 41l-.1.7-.4.6-.5.4-.7.1h-3.7l1.1-.8.9-.8.9-1 .8-1 .6.2.4.3.4.3.3.5v.5zM13 42.8h-1l-.5-.1-.5-.3-.3-.4-.1-.6v-.7l.6.6.6.5.6.5.6.5zM26.8 40H13.4v-5.6L26.8 40z"/><path d="M20.6 43.3a11.8 11.8 0 110-23.5c6.6 0 12 5.2 12 11.7a12 12 0 01-12 11.8z" fill="#fff"/><path fill-rule="evenodd" class="prefix__shp1" d="M9 36.2c-2-4.9-.8-10.4 3-14.1a12.9 12.9 0 1118 18.4 12 12 0 01-4.2 2.8c-1.6.7-3.3 1-5 .9-5.2 0-9.8-3.2-11.8-8zm2.5-8.7a10.2 10.2 0 1018.9 7.7 10.2 10.2 0 00-18.9-7.7z"/><path class="prefix__shp3" d="M20.5 33.9l-.5-.1-.5-.3-.3-.5-.2-.5v-6.9l.2-.6.3-.4.4-.3.5-.1.6.1.4.3.3.4.1.5v7l-.1.5-.3.5-.4.3-.5.1z"/><path class="prefix__shp3" d="M25 33.8h-4.3c-.4.1-.8-.1-1.1-.3-.3-.3-.5-.6-.5-1s.2-.8.5-1c.2-.3.6-.5 1-.5H25l.9.5c.2.3.4.6.4 1 0 .3-.2.6-.4.9-.2.2-.6.4-.9.4z"/></svg>