<svg xmlns="http://www.w3.org/2000/svg" width="80" height="80"><path d="M73 46a1 1 0 101 1 1 1 0 00-1-1z" fill="#3e3e3e"/><path d="M74 53V10a5 5 0 00-6-5H28a5 5 0 00-6 5v59a5 5 0 006 6h40a5 5 0 006-6V53a1 1 0 10-3 0v9H25V16h31v14a1 1 0 002 1l4-4 4 4a1 1 0 002-1V16h3v37h3zm-3 12v4a3 3 0 01-3 3H28a3 3 0 01-3-3v-4h46zm-5-38l-3-3a1 1 0 00-2 0l-3 3V16h8zM25 14v-4a3 3 0 013-2h40a3 3 0 013 2v4z" fill="#3e3e3e"/><path d="M67 54H31a1 1 0 000 2h36a1 1 0 000-2zM67 38H40a1 1 0 000 3h27a1 1 0 000-3zM67 46H31a1 1 0 000 3h36a1 1 0 000-3zM50 23H31a1 1 0 100 3h19a1 1 0 000-3zM50 31H31a1 1 0 100 3h19a1 1 0 000-3zM53 9H43a1 1 0 000 3h10a1 1 0 000-3zM49 67a1 1 0 100 1 1 1 0 000-1z" fill="#3e3e3e"/><path d="M17 24l-5-11a1 1 0 00-2 0L4 24a1 1 0 000 1v40a4 4 0 004 4h5a4 4 0 005-4V25a1 1 0 00-1-1zm-6-7l3 7H8zm4 48a2 2 0 01-2 2H8a2 2 0 01-1-2v-3h8zm0-6h-3V36a1 1 0 10-2 0v23H7V26h8z" fill="#328ccb"/><path fill="none" d="M0 0h80v80H0z"/></svg>