<svg xmlns="http://www.w3.org/2000/svg" viewBox="0 0 24 24"><defs><style>.prefix__cls-1{fill:none}.prefix__cls-2{fill:#3e3e3e}.prefix__cls-3{fill:none}.prefix__cls-4{fill:#328ccb}</style></defs><path class="prefix__cls-1" d="M0 0h24v24H0z"/><path class="prefix__cls-2" d="M17.5 19H6a3 3 0 01-3-3V8.5a3 3 0 013-3h11.5a3 3 0 013 3V16a3 3 0 01-3 3zM6 6.7a1.8 1.8 0 00-1.8 1.8V16A1.8 1.8 0 006 17.8h11.5a1.8 1.8 0 001.7-1.8V8.6a1.8 1.8 0 00-1.7-1.8z"/><path class="prefix__cls-3" d="M6 11.2h4.7"/><path class="prefix__cls-4" d="M10.7 11.8H6a.6.6 0 01-.5-.6.6.6 0 01.5-.6h4.7a.6.6 0 010 1.2z"/><path class="prefix__cls-3" d="M6 13.2h3.9"/><path class="prefix__cls-4" d="M10 13.8H6a.6.6 0 010-1.2h4a.6.6 0 01.6.5.6.6 0 01-.5.7z"/><circle class="prefix__cls-1" cx="14.9" cy="12.8" r="3.5"/><path class="prefix__cls-1" d="M16.449 16.05l1.3-1.095 3.414 4.054-1.3 1.095z"/><path class="prefix__cls-2" d="M21.2 18l-2.8-3.4a3.5 3.5 0 00.4-1.3 4 4 0 00-1-2.8 3.8 3.8 0 00-5.2-.6 4 4 0 00-.5 5.5 3.8 3.8 0 004 1.3l2.7 3.3a1.5 1.5 0 002.2.2 1.6 1.6 0 00.2-2.2zm-5.1-2.6a2 2 0 01-.6.2 2.6 2.6 0 01-2.5-1 2.8 2.8 0 01.3-3.8 2.6 2.6 0 013.7.4 2.7 2.7 0 01.6 2 2.2 2.2 0 01-.1.7 2 2 0 01-.3.5 2.5 2.5 0 01-.5.6 2.7 2.7 0 01-.7.4zm4.2 4a.4.4 0 01-.6-.1l-2.5-3.1a2.3 2.3 0 00.3-.3 2 2 0 00.3-.3l2.5 3.1a.4.4 0 010 .7z"/><path class="prefix__cls-4" d="M16.2 14.7a1 1 0 00.3-.2 1.8 1.8 0 00.4-.7 2.2 2.2 0 00.1-.3.6.6 0 00-.5-.7.6.6 0 00-.6.5.7.7 0 01-.3.4.8.8 0 01-.5.2.6.6 0 10-.2 1.1 1.5 1.5 0 00.5 0h.3a2.2 2.2 0 00.5-.3z"/></svg>