<svg xmlns="http://www.w3.org/2000/svg" viewBox="0 0 24 24"><path fill="none" d="M0 0h24v24H0z"/><path d="M5 8h13a3 3 0 013 3v4a3 3 0 01-3 3H5a3 3 0 01-3-3v-4a3 3 0 013-3z" fill="none"/><path d="M20 9.1a.6.6 0 01.5.3 3 3 0 01.4.7h.1v4a3 3 0 01-3 3h-1.6a.6.6 0 010-1.2H18a1.8 1.8 0 001.8-.9v-4a1.8 1.8 0 00-.3-1 .6.6 0 01.5-.9zM2.6 14.5a.6.6 0 01.6.6A1.8 1.8 0 005 16.8h7.4a.6.6 0 010 1.2H3.7a3 3 0 01-1.2-1h-.2a3 3 0 01-.2-1 .6.6 0 01.5-.6zM5 8h12a.6.6 0 110 1.2H5A1.8 1.8 0 003.2 11v.1a.6.6 0 01-1.2 0V11a3 3 0 013-3z" fill="#3e3e3e"/><path d="M9 5h5a3 3 0 013 3v1H6V8a3 3 0 013-3z" fill="none"/><path d="M8.8 5.6h5.4a2.2 2.2 0 012.2 2.2h0a.6.6 0 01-.6.6H7.2a.6.6 0 01-.6-.6h0a2.2 2.2 0 012.2-2.2z" fill="none" stroke="#3e3e3e" stroke-width="1.2"/><rect x="4.7" y="10.9" width="1.8" height="3.7" rx=".9" ry=".9" fill="none" stroke="#328ccb"/><rect x="8.4" y="10.9" width="1.8" height="3.7" rx=".9" ry=".9" fill="none" stroke="#328ccb"/><rect x="13" y="10.9" width="1.8" height="3.7" rx=".9" ry=".9" fill="none" stroke="#328ccb"/><rect x="16.6" y="10.9" width="1.8" height="3.7" rx=".9" ry=".9" fill="none" stroke="#328ccb"/><circle cx="11.5" cy="11.5" r=".5" fill="none"/><circle cx="11.5" cy="13.5" r=".5" fill="none"/><path fill="none" stroke="#328ccb" d="M4.3 12.8h1.8m2.8 0h.9m3.6 0h.9m1.9 0h2.7"/><rect x="2" y="8" width="19" height="12" rx="3" ry="3" fill="none"/><rect x="2.6" y="8.6" width="17.8" height="10.8" rx="2.4" ry="2.4" fill="none" stroke="#3e3e3e" stroke-width="1.2"/></svg>