<svg xmlns="http://www.w3.org/2000/svg" width="24" height="24"><path d="M17 5.2h-1v-.6a.6.6 0 00-1.2 0v.6h-2.7v-.6a.6.6 0 10-1.2 0v.6H8.3v-.6a.6.6 0 10-1.2 0v.6h-.7A2.4 2.4 0 004 7.6v9.3a2.4 2.4 0 002.4 2.4H11a.6.6 0 100-1.2H6.4a1.2 1.2 0 01-1.2-1.2V7.6a1.2 1.2 0 011.2-1.2H7V7a.6.6 0 101.2 0v-.6H11V7a.6.6 0 101.2 0v-.6H15V7a.6.6 0 001.2 0v-.6h.8a1.2 1.2 0 011.2 1.2V11a.6.6 0 101.2 0V7.6A2.4 2.4 0 0017 5.2z" fill="#3e3e3e" stroke="#3e3e3e" stroke-width=".2"/><path d="M16 12.8a3.2 3.2 0 103.3 3.3 3.2 3.2 0 00-3.2-3.3zm0 5.4a2.2 2.2 0 112.2-2.1 2.2 2.2 0 01-2.1 2.1z" fill="#3e3e3e" stroke="#3e3e3e" stroke-width=".2"/><path d="M16.8 15.2h-.2v-.6a.5.5 0 00-1 0v1a.5.5 0 00.5.6h.7a.5.5 0 000-1z" fill="#3e3e3e" stroke="#3e3e3e" stroke-width=".2"/><g transform="translate(7.2 9.5)" fill="none" stroke="#328ccb"><rect width="1.6" height="1.6" rx=".8" stroke="none"/><rect x=".5" y=".5" width=".6" height=".6" rx=".3"/></g><g transform="translate(10.8 9.5)" fill="none" stroke="#328ccb"><rect width="1.6" height="1.6" rx=".8" stroke="none"/><rect x=".5" y=".5" width=".6" height=".6" rx=".3"/></g><g transform="translate(7.2 13.1)" fill="none" stroke="#328ccb"><rect width="1.6" height="1.6" rx=".8" stroke="none"/><rect x=".5" y=".5" width=".6" height=".6" rx=".3"/></g><g transform="translate(14.5 9.5)" fill="none" stroke="#328ccb"><rect width="1.6" height="1.6" rx=".8" stroke="none"/><rect x=".5" y=".5" width=".6" height=".6" rx=".3"/></g><path fill="none" d="M0 0h24v24H0z"/></svg>