<svg xmlns="http://www.w3.org/2000/svg" viewBox="0 0 24 24"><defs><style>.prefix__prefix__cls-1{fill:none}.prefix__prefix__cls-2{fill:#3e3e3e}</style></defs><path class="prefix__prefix__cls-1" d="M0 0h24v24H0z"/><rect class="prefix__prefix__cls-1" x="3.9" y="7.6" width="16.2" height="11.3" rx="2.1"/><path class="prefix__prefix__cls-2" d="M18 19.5H6a2.7 2.7 0 01-2.7-2.8v-7A2.7 2.7 0 016.1 7H18a2.7 2.7 0 012.7 2.7v7a2.7 2.7 0 01-2.7 2.8zM6 8.2a1.5 1.5 0 00-1.5 1.5v7A1.5 1.5 0 006 18.2h12a1.5 1.5 0 001.5-1.5v-7A1.5 1.5 0 0018 8.2z"/><path class="prefix__prefix__cls-1" d="M7 10.8V5.9a.8.8 0 01.8-.8h8.4a.8.8 0 01.8.8V11"/><path class="prefix__prefix__cls-2" d="M17 11.6a.7.7 0 01-.7-.6V5.7H7.7l-.2.2v4.9a.7.7 0 01-1.3 0V5.9a1.5 1.5 0 011.5-1.5h8.4A1.5 1.5 0 0117.7 6v5a.7.7 0 01-.7.6z"/><path class="prefix__prefix__cls-2" d="M11.9 15.7a1.9 1.9 0 01-1.3-.5l-6.4-6a.7.7 0 11.9-1l6.4 6a.6.6 0 00.7 0L19 8.4a.7.7 0 11.8 1l-6.7 5.8a1.9 1.9 0 01-1.2.5z"/><path d="M14.3 10.2H9.7a.5.5 0 01-.5-.5.5.5 0 01.5-.5h4.6a.5.5 0 01.5.5.5.5 0 01-.5.5zm-.6-1.8h-3.4a.5.5 0 110-1h3.4a.5.5 0 010 1z" fill="#328ccb"/></svg>