<svg xmlns="http://www.w3.org/2000/svg" width="24" height="24"><path d="M19 3h-8a2 2 0 00-2 2v.3H6.3a2 2 0 00-2 2v12.5a2 2 0 002 2h8.5a2 2 0 002-2v-.2H19a2 2 0 002-2V5a2 2 0 00-2-2zm-3.8 16.8a.4.4 0 01-.4.5H6.3a.4.4 0 01-.4-.5V7.2a.4.4 0 01.4-.4h8.5a.4.4 0 01.4.4zm4.3-2.2a.4.4 0 01-.5.4h-2.2v-1.3h.9a.8.8 0 00.8-.7.8.8 0 00-.8-.8h-1v-1.6h1a.8.8 0 00.8-.8.8.8 0 00-.8-.7h-1v-1.6h1a.8.8 0 00.8-.8.8.8 0 00-.8-.8h-1V7.4h1a.8.8 0 00.8-.8.8.8 0 00-.8-.8h-1.5a2 2 0 00-1.4-.6h-4.2V5a.4.4 0 01.4-.4h8a.4.4 0 01.5.4z" fill="#3e3e3e"/><path d="M14.3 16.8l-.6-1.5-.6-1.6-.7-1.6-.7-1.7-.2-.4a.7.7 0 00-.2-.2.7.7 0 00-.5-.3.1.1 0 00-.1 0 .8.8 0 00-.7.5l-.9 2.2-2 4.6a.9.9 0 000 .3.7.7 0 00.2.6.8.8 0 001 0 1 1 0 00.3-.3l.5-1.2h3.3l.3.6.2.6a.7.7 0 00.3.4.8.8 0 00.4.1.8.8 0 00.6-.2.8.8 0 00.2-.6 1 1 0 000-.3zm-4.6-2l1-2.5v-.2l1.1 2.7z" fill="#328ccb"/><path fill="none" d="M0 0h24v24H0z"/></svg>