<?xml version="1.0" standalone="no"?><!DOCTYPE svg PUBLIC "-//W3C//DTD SVG 1.1//EN" "http://www.w3.org/Graphics/SVG/1.1/DTD/svg11.dtd"><svg t="1711468652075" class="icon" viewBox="0 0 1024 1024" version="1.1" xmlns="http://www.w3.org/2000/svg" p-id="10448" xmlns:xlink="http://www.w3.org/1999/xlink" width="200" height="200"><path d="M490.536664 958.629153l-26.397207 0.042979c-75.049277-0.309038-150.031015-0.347924-225.028103-0.347924l-140.111085-0.017396L99.00027 502.205936l-36.436864-0.013303-0.013303-220.886783L236.499877 281.305851c-24.254404-17.010419-42.689265-38.807864-53.332672-63.569828-14.343683-34.029024-14.854313-70.667479-1.435699-100.589976 10.214642-23.208585 31.211862-41.509393 56.148811-48.883337 13.227256-3.913123 26.941606-5.898337 40.753169-5.898337 21.583574 0 42.565445 4.959965 60.706617 14.34266 12.573363 6.087649 22.977317 15.09786 33.060977 23.810289 25.024953 24.052812 42.228777 53.319369 58.878992 81.620949l7.694239 13.018501c11.316743 19.35993 22.965038 39.305191 39.521109 54.336536 8.865925 8.633634 20.208251 13.430894 31.373545 13.430894l1.99954-0.051165c11.632945-0.150426 23.177885-5.486968 32.0653-14.653745 16.396435-15.57779 27.551496-34.764781 39.34817-55.076386 3.553942-6.125511 7.102768-12.237719 10.794857-18.2302 20.078291-34.265408 42.708707-69.824275 77.70271-92.51916 20.444635-13.108552 44.926212-20.014846 70.851675-20.014846 11.840676 0 23.677259 1.462305 35.17922 4.342912 23.139 5.941316 42.138726 18.892279 53.532217 36.494169 16.166191 22.938432 21.596877 55.381331 14.691607 88.680738-6.447852 32.448016-26.826995 63.549362-55.891961 85.282339-1.795902 1.38044-3.645017 2.747577-5.564739 4.099365 12.791327 0.011256 173.9641 0.042979 173.9641 0.042979l0 220.924645c0 0-34.522258-0.025583-36.305881-0.038886-0.252757 85.599563-0.214894 171.20015-0.171915 256.802784 0.025583 63.076594 0.051165 126.152165-0.029676 189.232852l-0.013303 10.109242-284.96724-0.025583c-25.888624 0.291642-51.909254 0.361227-77.917604 0.361227L490.536664 958.629153 490.536664 958.629153zM630.136096 643.311675c-0.013303 86.108147-0.024559 172.21834 0.042979 258.31523l235.176231-0.038886L865.355305 502.56614l-235.219209-0.025583L630.136096 643.311675 630.136096 643.311675zM390.929062 901.613602l0-21.966291c0.038886-125.71112 0.075725-251.408937-0.014326-377.120057l-235.1793 0.038886 0 399.017786 187.43695 0.013303L390.929062 901.613602 390.929062 901.613602zM573.40093 901.250328c0.025583-187.595562 0.025583-375.196241 0-562.805106L447.68981 338.445222c-0.029676 187.608865-0.029676 375.209544 0 562.805106L573.40093 901.250328 573.40093 901.250328zM901.835148 445.148429l0-107.119693-271.680633-0.025583-0.01842 107.131973 135.473461 0L901.835148 445.148429 901.835148 445.148429zM390.953621 445.110567l-0.014326-107.10639L119.259686 338.042039l0 107.09411 47.133483 0L390.953621 445.110567 390.953621 445.110567zM631.427508 263.061324c10.725272 0 21.433148-0.037862 32.159444-0.252757 26.922163-1.045819 53.118801-7.977695 75.522044-20.015869 25.793456-13.850449 44.119847-34.858926 50.245358-57.635675 2.936889-11.449773 6.263657-33.287127-4.676509-49.697889-5.953595-9.598612-17.927301-13.284561-24.563442-14.651698-5.817496-1.088798-11.82328-1.650593-17.695011-1.650593-13.31219 0-25.730011 2.988054-35.889395 8.646937-16.920368 9.667174-31.680537 25.176402-47.781236 50.249451-7.719822 11.689227-14.922874 24.035416-21.87931 35.966143-9.573029 16.384156-19.373233 33.184797-30.836309 49.003064L631.427508 263.061324 631.427508 263.061324zM415.058622 263.034718c-11.394515-15.714913-21.129226-32.404014-30.633694-48.694025-6.39464-10.965749-13.018501-22.295795-19.964704-33.003672-10.081613-15.885805-22.602787-33.758871-39.493479-46.550199-12.375865-10.190083-28.489868-15.658631-45.693692-15.658631-1.684362 0-3.365654 0.054235-5.036713 0.161682-16.705474 0.673335-28.610618 5.080715-35.597753 13.088086-12.465916 14.878872-10.360975 36.690644-7.985882 48.354288 4.260024 20.954241 18.848277 41.063231 40.017412 55.16746 26.085098 17.482163 59.992349 27.110451 95.491865 27.110451l45.391816 0.024559L415.058622 263.034718 415.058622 263.034718 415.058622 263.034718zM415.058622 263.034718" fill="#3e3e3e" p-id="10449" data-spm-anchor-id="a313x.search_index.0.i2.71823a81h11GPS" class="selected"></path></svg>