<svg xmlns="http://www.w3.org/2000/svg" width="24" height="24"><path fill="none" d="M0 0h24v24H0z"/><path d="M9.6 15.5a1.6 1.6 0 101.6 1.5 1.6 1.6 0 00-1.6-1.5zM13.5 13.3a5.5 5.5 0 00-7.8 0 1 1 0 001.5 1.5 3.3 3.3 0 014.7 0 1 1 0 001.6-1.5zM18 8.3a11.7 11.7 0 00-17 0 1.1 1.1 0 000 1.5 1 1 0 001.5 0 9.7 9.7 0 0114.1 0 1 1 0 001.5 0 1.1 1.1 0 000-1.5z" fill="#3e3e3e"/><path d="M15.5 10.9a8 8 0 00-11.9 0 1.1 1.1 0 000 1.5 1 1 0 001.5 0 6.1 6.1 0 019 0 1 1 0 001.4 0 1.1 1.1 0 000-1.5z" fill="#3e3e3e"/><text transform="translate(11 19)" fill="#328ccb" font-size="5" font-family="SourceHanSans-Heavy, Source Han Sans" font-weight="800" letter-spacing="0em"><tspan x="0" y="0">HNU</tspan></text></svg>