<svg xmlns="http://www.w3.org/2000/svg" width="24" height="24"><g transform="translate(4 3)"><path d="M10.4 1.3a.7.7 0 00-.7.8.7.7 0 00.7.7 1 1 0 011 1v11.4a1 1 0 01-1 1h-8a1 1 0 01-1-1V3.7a1 1 0 011-.9.7.7 0 00.7-.7.7.7 0 00-.7-.8A2.4 2.4 0 000 3.7v11.5a2.4 2.4 0 002.4 2.4h8a2.4 2.4 0 002.4-2.4V3.7a2.4 2.4 0 00-2.4-2.4z" fill="#3e3e3e"/><path d="M4.3 2.8h4.2a.7.7 0 00.7-.7.7.7 0 00-.7-.8h-.2V.7a.7.7 0 00-.8-.7.7.7 0 00-.7.7v.6H6V.7a.7.7 0 00-.8-.7.7.7 0 00-.7.7v.6h-.2a.7.7 0 00-.7.8.7.7 0 00.7.7z" fill="#328ccb"/><path d="M9.7 6.4A.7.7 0 019 7H6a.7.7 0 01-.7-.7.7.7 0 01.7-.7h3a.7.7 0 01.7.7z" fill="#3e3e3e"/><circle cx=".7" cy=".7" r=".7" transform="translate(2.8 5.7)" fill="#3e3e3e"/><path d="M9.7 9.6a.7.7 0 01-.7.8H6a.7.7 0 01-.7-.8.7.7 0 01.7-.7h3a.7.7 0 01.7.7z" fill="#3e3e3e"/><circle cx=".7" cy=".7" r=".7" transform="translate(2.8 8.8)" fill="#3e3e3e"/><path d="M9.7 13a.7.7 0 01-.7.6H6a.7.7 0 01-.7-.7.7.7 0 01.7-.7h3a.7.7 0 01.7.7z" fill="#3e3e3e"/><circle cx=".7" cy=".7" r=".7" transform="translate(2.8 12.2)" fill="#3e3e3e"/><path d="M15.7 4.6a.7.7 0 00-.8.7v11a.7.7 0 00.8.6.7.7 0 00.7-.7V5.3a.7.7 0 00-.7-.7zM16.6 2.4a1 1 0 01-.2.7h-.2a.9.9 0 01-.2.2 1.2 1.2 0 01-.1 0 1.3 1.3 0 01-.2 0 1 1 0 01-.4 0A1 1 0 0115 3a1 1 0 01-.3-.3 1 1 0 010-.4 1 1 0 01.6-1 1 1 0 01.5 0 .6.6 0 01.2 0 .5.5 0 01.2.2.9.9 0 01.1 0 .6.6 0 01.2.2 1.6 1.6 0 010 .2 1.2 1.2 0 01.1.2.5.5 0 010 .2z" fill="#3e3e3e"/></g><path fill="none" d="M0 0h24v24H0z"/></svg>