<svg xmlns="http://www.w3.org/2000/svg" width="60" height="60"><path d="M44.5 16.2h-3.3a7.2 7.2 0 00-.7-2.4 2.8 2.8 0 00-2.4-1.8 2.8 2.8 0 00-2.4 1.8 7.2 7.2 0 00-.6 2.4h-2.2a7.2 7.2 0 00-.7-2.4 2.8 2.8 0 00-2.4-1.8 2.8 2.8 0 00-2.4 1.8 7.2 7.2 0 00-.7 2.4h-2.2a7.2 7.2 0 00-.6-2.4 2.8 2.8 0 00-2.4-1.8 2.8 2.8 0 00-2.5 1.8 7.2 7.2 0 00-.6 2.4H15a3.1 3.1 0 00-3.1 3.1v25.2a3.1 3.1 0 003.1 3h29.4a3.1 3.1 0 003-3V19.3a3.1 3.1 0 00-3-3.1zm-7-1.5l.6-.6s.3.1.6.6a4.9 4.9 0 01.4 1.5h-2a4.9 4.9 0 01.5-1.5zm-8.3 0c.3-.5.6-.6.6-.6s.3.1.5.6a4.9 4.9 0 01.5 1.5h-2a4.9 4.9 0 01.4-1.5zm-8.3 0c.3-.5.5-.6.6-.6s.2.1.5.6a4.9 4.9 0 01.4 1.5h-2a4.9 4.9 0 01.5-1.5zm-5.8 3.6h7.3a4.9 4.9 0 01-.4 1.4l-.5.6a1 1 0 100 2.1 2.8 2.8 0 002.4-1.8 7.2 7.2 0 00.6-2.3h6.3a4.9 4.9 0 01-.5 1.4c-.2.5-.5.6-.5.6a1 1 0 100 2.1 2.8 2.8 0 002.4-1.8 7.2 7.2 0 00.7-2.3H39a4.9 4.9 0 01-.4 1.4c-.3.5-.5.6-.6.6a1 1 0 100 2.1 2.8 2.8 0 002.4-1.8 7.2 7.2 0 00.7-2.3h3.3a1 1 0 011 1v5.3H14.1v-5.3a1 1 0 011-1zm29.4 27.2H15a1 1 0 01-1-1V26.7h31.4v17.8a1 1 0 01-1 1zm0 0" fill="#3e3e3e" stroke="#3e3e3e" stroke-width=".6"/><path stroke-width="2" stroke="#3e3e3e" stroke-linecap="round" stroke-linejoin="round" fill="none" d="M19.5 32.3h1.1v1h-1.1zm14 0h1.1v1h-1.1zm7 0h1.1v1h-1.1zm-21 6.3h1.1v1.1h-1.1zm7 0h1.1v1.1h-1.1z"/><path d="M32 38.9l1.8 1.7 1.8-3.1" fill="none" stroke="#328ccb" stroke-linecap="round" stroke-linejoin="round" stroke-width="2.3"/><path stroke-width="2" stroke="#3e3e3e" stroke-linecap="round" stroke-linejoin="round" fill="none" d="M40.5 38.3h1.1v1h-1.1z"/><path d="M25 32.7l1.8 1.7 1.8-3.1" fill="none" stroke="#328ccb" stroke-linecap="round" stroke-linejoin="round" stroke-width="2.3"/><path fill="none" d="M0 0h60v60H0z"/></svg>