<svg xmlns="http://www.w3.org/2000/svg" width="60" height="60"><style>.prefix__shp0{fill:none}.prefix__shp1{fill:#3e3e3e}.prefix__shp2{fill:#328ccb}</style><path class="prefix__shp0" d="M-5-11h69a6 6 0 016 6v69a6 6 0 01-6 6H-5a6 6 0 01-6-6V-5a6 6 0 016-6z"/><path fill-rule="evenodd" class="prefix__shp0" d="M37.9 16.7l.2.2.2.3v24.3a.8.8 0 01-.2.6l-.2.2H21.1a.8.8 0 01-.4-.5V17.5a.8.8 0 01.2-.6l.2-.2H38zM36.4 37l.1-.2.1-.3v-.7l-.1-.1-2.5-6-1.2-3-1.4-3.2-.3-.9v-.1l-.1-.1-.1-.1-.1-.1-.2-.2-.3-.2-.3-.1h-1l-.4.3-.3.3-.2.3-1.7 4.1-3.7 9v.2l-.1.2v.1a1.3 1.3 0 000 .6 1.2 1.2 0 00.4.4 1.5 1.5 0 00.9.5 1.5 1.5 0 001-.2l.2-.2.1-.1.1-.2.2-.2 1-2.4h6.2l.5 1.2.5 1.2v.2l.2.2.2.1.2.2h.2l.1.1h.3l.2.1h.3a1.6 1.6 0 00.8-.4l.1-.3z"/><path fill-rule="evenodd" class="prefix__shp1" d="M16.8 44.2a6.5 6.5 0 01-6.5-6.5V21.4a6.7 6.7 0 011.9-4.7 6.6 6.6 0 014.6-1.9h25.4a6.5 6.5 0 016.5 6.6v16.3a6.7 6.7 0 01-1.9 4.6 6.6 6.6 0 01-4.6 1.9H16.8zm0-26.8a4 4 0 00-4 4v16.3a4 4 0 002.5 3.6l1.5.3h25.4a3.8 3.8 0 002.8-1.2 4 4 0 001.1-2.7V21.4a4 4 0 00-2.4-3.7l-1.5-.3H16.8z"/><path fill-rule="evenodd" class="prefix__shp1" d="M33.5 27.4a4.4 4.4 0 118.2-3.4 4.4 4.4 0 01-8.1 3.4zM36 25c-.3.7 0 1.5.4 2a1.8 1.8 0 003.2-1.3 1.9 1.9 0 00-.6-1.3 1.8 1.8 0 00-1.3-.5c-.7 0-1.4.4-1.7 1.1z"/><path fill-rule="evenodd" class="prefix__shp1" d="M32.1 37.7l-.4-.1c-.2 0-.3-.2-.4-.3-.2 0-.3-.2-.3-.4l-.1-.5a6.8 6.8 0 016.8-6.8 6.8 6.8 0 016.8 6.8l-.1.5-.3.4-.5.3-.4.1h-11zm9.6-2.6a4.2 4.2 0 00-4-3c-1 0-1.8.3-2.6.8-.7.6-1.2 1.3-1.5 2.2h8z"/><path class="prefix__shp0" d="M17 27.1h10.3"/><path class="prefix__shp2" d="M27.3 28.4H17c-.3 0-.6-.2-.8-.4-.3-.2-.4-.6-.4-.9 0-.3.1-.6.4-.9l.8-.4h10.3c.4 0 .7.2.9.4.2.3.3.6.3 1 0 .2 0 .6-.3.8-.2.2-.5.4-.8.4z"/><path class="prefix__shp0" d="M17 31.4h8.6"/><path class="prefix__shp2" d="M25.6 32.7H17c-.3 0-.6-.1-.8-.4-.3-.2-.4-.5-.4-.8 0-.4.1-.7.4-1 .2-.2.5-.3.8-.3h8.6c.4 0 .7 0 1 .2.2.3.4.6.4 1 0 .3 0 .6-.2.9-.3.2-.6.4-1 .4h-.2z"/></svg>