<svg width="60" height="60" viewBox="0 0 60 60" fill="none" xmlns="http://www.w3.org/2000/svg">
<path d="M32.9508 22.186V36.7607C33.0505 37.3624 33.0052 37.9792 32.8188 38.5598C32.6324 39.1405 32.3102 39.6684 31.879 40.0997C31.4477 40.5309 30.9199 40.8531 30.3392 41.0395C29.7585 41.2259 29.1417 41.2712 28.54 41.1715H12.4311C11.8371 41.2313 11.2372 41.1584 10.6748 40.9579C10.1125 40.7574 9.60171 40.4344 9.17955 40.0122C8.75739 39.5901 8.43437 39.0793 8.23388 38.517C8.03338 37.9546 7.96043 37.3547 8.0203 36.7607V36.7935C8.0203 35.8346 8.21207 35.6428 9.17094 35.6428H11.8558V14.8986C11.8558 12.2138 13.0064 11.0631 15.6912 11.0631H34.1014C34.6276 10.9581 35.1715 10.9845 35.685 11.14C36.1986 11.2956 36.6657 11.5755 37.0451 11.9549C37.4245 12.3343 37.7044 12.8014 37.86 13.315C38.0155 13.8285 38.0419 14.3724 37.9369 14.8986V21.0353C37.9369 21.9942 37.5533 22.186 36.5945 22.186H32.9508ZM31.6084 12.5973H14.9241C13.7735 12.5973 13.1982 13.1726 13.1982 14.515V35.6428H25.2799C26.4305 35.6428 26.6223 35.6428 26.6223 36.9852V37.1442C26.6447 37.4902 26.739 37.8276 26.8992 38.1351C27.0594 38.4425 27.282 38.7131 27.5527 38.9297C27.8234 39.1463 28.1363 39.304 28.4714 39.3928C28.8065 39.4816 29.1564 39.4996 29.4989 39.4455C30.0908 39.3085 30.6123 38.9601 30.9654 38.4657C31.3185 37.9713 31.479 37.365 31.4166 36.7607V14.8986L31.6084 12.4055V12.5973ZM25.2799 37.177H9.55448V36.5689C9.46163 36.9829 9.46819 37.4129 9.57362 37.8238C9.67905 38.2347 9.88035 38.6148 10.161 38.9329C10.4417 39.251 10.7938 39.498 11.1883 39.6538C11.5829 39.8096 12.0088 39.8696 12.4311 39.8291H25.6634C25.419 39.0111 25.2268 38.1784 25.0881 37.336C25.0394 36.5057 25.0394 38.1991 25.0881 37.3688L25.2799 37.177ZM36.2109 20.6518V14.1315C36.1573 13.6931 35.9541 13.2867 35.6356 12.9809C35.4172 12.7496 35.1239 12.6034 34.8078 12.5683C34.4917 12.5332 34.1734 12.6114 33.9096 12.7891C33.6079 12.9102 33.3523 13.124 33.18 13.3998C33.0077 13.6755 32.9274 13.9989 32.9508 14.3233V20.6518H36.2109Z" fill="#3E3E3E" stroke="#3E3E3E" style="fill:#3E3E3E;fill:color(display-p3 0.2431 0.2431 0.2431);fill-opacity:1;stroke:#3E3E3E;stroke:color(display-p3 0.2431 0.2431 0.2431);stroke-opacity:1;"/>
<path d="M18.6141 19.2556L21.8523 22.9672L25.0905 19.2556" stroke="#328CCB" style="stroke:#328CCB;stroke:color(display-p3 0.1961 0.5490 0.7961);stroke-opacity:1;" stroke-width="2" stroke-linecap="round" stroke-linejoin="round"/>
<path d="M18.0743 24.2043H25.6301" stroke="#328CCB" style="stroke:#328CCB;stroke:color(display-p3 0.1961 0.5490 0.7961);stroke-opacity:1;" stroke-width="2" stroke-linecap="round" stroke-linejoin="round"/>
<path d="M18.0743 27.9155H25.6301" stroke="#328CCB" style="stroke:#328CCB;stroke:color(display-p3 0.1961 0.5490 0.7961);stroke-opacity:1;" stroke-width="2" stroke-linecap="round" stroke-linejoin="round"/>
<path d="M21.8522 24.2043V31.009" stroke="#328CCB" style="stroke:#328CCB;stroke:color(display-p3 0.1961 0.5490 0.7961);stroke-opacity:1;" stroke-width="2" stroke-linecap="round" stroke-linejoin="round"/>
<path d="M41.1042 26.4167H49.7292L44.4583 34.8751H51.6458L40.1458 50.5834L42.5417 39.1042H35.8333L41.1042 26.4167Z" stroke="#333333" style="stroke:#333333;stroke:color(display-p3 0.2000 0.2000 0.2000);stroke-opacity:1;" stroke-width="3" stroke-linejoin="round"/>
</svg>
