<svg xmlns="http://www.w3.org/2000/svg" width="60" height="60"><path d="M26.9 39.5H15a1.5 1.5 0 00-1.5 1.5 1.5 1.5 0 001.5 1.5h1.1v3a1.5 1.5 0 001.5 1.5 1.5 1.5 0 001.5-1.5v-3h3.5v3a1.5 1.5 0 001.5 1.5 1.5 1.5 0 001.5-1.5v-3H27a1.5 1.5 0 001.5-1.5 1.5 1.5 0 00-1.5-1.5zM45.5 39.5H33.7a1.5 1.5 0 00-1.5 1.5 1.5 1.5 0 001.5 1.5h1.1v3a1.5 1.5 0 001.5 1.5 1.5 1.5 0 001.5-1.5v-3h3.5v3a1.5 1.5 0 001.5 1.5 1.5 1.5 0 001.5-1.5v-3h1.2A1.5 1.5 0 0047 41a1.5 1.5 0 00-1.5-1.5zM44.2 13H16.8a5.8 5.8 0 00-5.8 5.7v12.1a5.8 5.8 0 005.8 5.8h27.4a5.8 5.8 0 005.7-5.8v-12a5.8 5.8 0 00-5.7-5.8zm2.7 17.8a2.7 2.7 0 01-2.7 2.8H16.8a2.8 2.8 0 01-2.8-2.8v-12a2.7 2.7 0 012.8-2.8h27.4a2.7 2.7 0 012.7 2.7z" fill="#3e3e3e"/><path d="M23.9 21.3a3.1 3.1 0 00-2.5-1 3.1 3.1 0 00-2.4 1 4 4 0 00-.8 2.7v4a1.2 1.2 0 00.3.9 1.1 1.1 0 00.9.3 1.2 1.2 0 00.8-.3 1.2 1.2 0 00.4-.9v-.8h1.7v.8a1.2 1.2 0 00.4.9 1.2 1.2 0 00.9.3 1.2 1.2 0 00.8-.3 1.2 1.2 0 00.4-.9v-3.9a4 4 0 00-1-2.8zm-1.6 3.5h-1.7v-.6a2 2 0 01.2-1.1c.1-.2.3-.3.7-.3.6 0 .8.4.8 1.3zM34.2 24.6a2.4 2.4 0 00.5-1.5 2.7 2.7 0 00-.8-1.9 2.7 2.7 0 00-1.9-.7h-2.9a1.2 1.2 0 00-.8.3 1.2 1.2 0 00-.4.8V28a1.2 1.2 0 001.2 1.1h3a2.7 2.7 0 002.8-2.7 2.7 2.7 0 00-.7-1.8zm-4-1.8H32a.4.4 0 01.2.1.3.3 0 01.2.3.6.6 0 01-.1.3.5.5 0 01-.3.2h-1.6zm2.2 3.8a.4.4 0 01-.3.2h-1.8v-1H32a.7.7 0 01.3.1.4.4 0 01.1.3.5.5 0 01-.1.4zM43.5 26.2a1.2 1.2 0 01.4.8 1.5 1.5 0 01-.3.8 3.6 3.6 0 01-1 1 3.2 3.2 0 01-1.7.4 3.3 3.3 0 01-2.4-.9 3.4 3.4 0 01-1-2.6v-1.9a3.5 3.5 0 011-2.5 3.6 3.6 0 014.1-.5 4 4 0 011 1 1.6 1.6 0 01.3.7 1.2 1.2 0 01-.4.9 1.3 1.3 0 01-.9.3.9.9 0 01-.8-.4.6.6 0 01-.1-.2.6.6 0 00-.4-.3 3 3 0 00-.4 0 1.2 1.2 0 00-.7 0 1.1 1.1 0 00-.3 1v2a1.1 1.1 0 00.3.9 1.2 1.2 0 00.7.1 1 1 0 00.6-.1 1.2 1.2 0 00.2-.2 1 1 0 01.5-.5 1 1 0 01.4-.1 1.4 1.4 0 01.9.3z" fill="#328ccb"/><path fill="none" opacity=".6" d="M0 0h60v60H0z"/></svg>