<svg xmlns="http://www.w3.org/2000/svg" width="44.5" height="42.5" viewBox="-9 -7 66 66"><path d="M17.7 28.1a1.5 1.5 0 01-1.5-1.5V16a1.5 1.5 0 013 0v7l1.1-1.3a1.5 1.5 0 112.2 2l-3.7 4a1.5 1.5 0 01-1 .5zM12.6 28.1a1.5 1.5 0 01-1.5-1.5v-6.9L10 21a1.5 1.5 0 11-2.2-2l3.7-4a1.5 1.5 0 012.6 1v10.7a1.5 1.5 0 01-1.5 1.5z" fill="#3e3e3e"/><path d="M38.9 11.9a1.5 1.5 0 01-1.5-1.5A7.4 7.4 0 0030 3a1.5 1.5 0 110-3 10.4 10.4 0 0110.4 10.4 1.5 1.5 0 01-1.5 1.5z" fill="#328ccb"/><path d="M33 12a1.5 1.5 0 01-1.4-1.5A2.5 2.5 0 0029 8a1.5 1.5 0 010-3 5.5 5.5 0 015.5 5.5A1.5 1.5 0 0133 12zM6.3 36.7a.8.8 0 01-.7-.8v-5.6a.8.8 0 011.5 0V36a.8.8 0 01-.8.8z" fill="#328ccb"/><path d="M9.9 33.7H6.3a.8.8 0 010-1.5H10a.8.8 0 010 1.5z" fill="#328ccb"/><path d="M10.1 36.7a.8.8 0 01-.7-.8v-5.6a.8.8 0 011.5 0V36a.8.8 0 01-.8.8z" fill="#328ccb"/><g><path d="M13 36.7a.8.8 0 01-.8-.8v-5.5a.8.8 0 111.5 0v5.5a.8.8 0 01-.7.8zM17 36.7a.8.8 0 01-.7-.8v-5.6a.8.8 0 011.5 0V36a.8.8 0 01-.7.8z" fill="#328ccb"/><path d="M17 36.7a.8.8 0 01-.6-.3l-4-5.6a.8.8 0 011.2-.9l4 5.6a.8.8 0 01-.5 1.2z" fill="#328ccb"/></g><g><path d="M22 36.7a2.7 2.7 0 01-2-.8 3 3 0 01-.8-2v-3.6a.8.8 0 011.5 0V34a1.1 1.1 0 001.3 1.2 1.2 1.2 0 001.2-1.2v-3.7a.8.8 0 011.5 0V34a2.7 2.7 0 01-2.7 2.7z" fill="#328ccb"/></g><g><path d="M43.7 33.3l-3.5-5a1.5 1.5 0 00-.3-.4 8.7 8.7 0 00-9.1-13v-.5a6 6 0 00-6-6H6a6 6 0 00-6 6v22a6 6 0 006 6h18.8a6 6 0 006-6v-4.3a8.8 8.8 0 001.6.2h.3a1.5 1.5 0 00.3.6l3.7 5.3a4.3 4.3 0 107-4.9zm-16 3.1a3 3 0 01-3 3H6a3 3 0 01-3-3v-22a3 3 0 013-3h18.8a3 3 0 013 3V16l-.4.3a8.7 8.7 0 00.4 14.5zm.2-9.8a5.4 5.4 0 117.5 1.4 5.4 5.4 0 01-7.5-1.4zm13 10.2a1.3 1.3 0 01-1.7-.3l-3.5-5a8.6 8.6 0 001.6-.8l.6-.5 3.4 4.8a1.3 1.3 0 01-.3 1.8z" fill="#3e3e3e"/></g></svg>