<svg xmlns="http://www.w3.org/2000/svg" width="31.5" height="36.8" viewBox="-12 -10 61 61"><path d="M25.5 36.8H6a5.8 5.8 0 01-6-5.6V8.4a5.8 5.8 0 016-5.6 1.5 1.5 0 010 3 2.8 2.8 0 00-3 2.6v22.8a2.8 2.8 0 003 2.6h19.5a2.8 2.8 0 003-2.6V8.4a2.8 2.8 0 00-3-2.6 1.5 1.5 0 010-3 5.8 5.8 0 016 5.6v22.8a5.8 5.8 0 01-6 5.6z" fill="#3e3e3e"/><path d="M20.8 2.8h-.6V1.5a1.5 1.5 0 10-3 0v1.3h-3V1.5a1.5 1.5 0 10-3 0v1.3h-.4a1.5 1.5 0 000 3h10a1.5 1.5 0 000-3z" fill="#328ccb"/><path d="M18.3 22.4a1.5 1.5 0 01-1.5-1.5V10.2a1.5 1.5 0 013 0v6.9l1.1-1.2a1.5 1.5 0 112.2 2l-3.7 4a1.5 1.5 0 01-1 .5zM13.2 22.4a1.5 1.5 0 01-1.5-1.5V14l-1.1 1.2a1.5 1.5 0 11-2.2-2l3.7-4a1.5 1.5 0 012.6 1V21a1.5 1.5 0 01-1.5 1.5z" fill="#3e3e3e"/><g><path d="M7 31a.8.8 0 01-.8-.8v-5.6a.8.8 0 011.5 0v5.6a.8.8 0 01-.8.8z" fill="#328ccb"/><path d="M10.4 28H7a.8.8 0 110-1.6h3.5a.8.8 0 010 1.5z" fill="#328ccb"/><path d="M10.7 31a.8.8 0 01-.8-.8v-5.6a.8.8 0 011.5 0v5.6a.8.8 0 01-.7.8z" fill="#328ccb"/><g><path d="M13.6 31a.8.8 0 01-.8-.8v-5.5a.8.8 0 011.5 0v5.5a.8.8 0 01-.7.8zM17.6 31a.8.8 0 01-.7-.8v-5.6a.8.8 0 011.5 0v5.6a.8.8 0 01-.8.8z" fill="#328ccb"/><path d="M17.6 31a.8.8 0 01-.6-.3L13 25a.8.8 0 111.2-1l4 5.7a.8.8 0 01-.6 1.2z" fill="#328ccb"/></g><g><path d="M22.6 31a2.7 2.7 0 01-2-.8 3 3 0 01-.8-2v-3.6a.8.8 0 011.5 0v3.7a1.1 1.1 0 001.3 1.2 1.2 1.2 0 001.2-1.2v-3.7a.8.8 0 011.5 0v3.7a2.7 2.7 0 01-2.7 2.7z" fill="#328ccb"/></g></g></svg>