<svg xmlns="http://www.w3.org/2000/svg" width="60" height="60" viewBox="-1 -1 62 62"><style>.prefix__shp1{fill:#3e3e3e}</style><path d="M-5-11h69a6 6 0 016 6v69a6 6 0 01-6 6H-5a6 6 0 01-6-6V-5a6 6 0 016-6z" fill="none"/><path fill-rule="evenodd" class="prefix__shp1" d="M51.7 34.8c.5.6.9 1.3 1.1 2 .3.7.5 1.5.6 2.2.1.8.1 1.6-.1 2.3a9 9 0 01-.6 2.2l-.1.1v.3c-.3.6-.6 1.2-1.2 1.8a5.4 5.4 0 01-4 1.6c-.7 0-1.4-.1-2.1-.4l-21-8.6c-.3-.1-.5-.3-.8-.3l-.7-.6-.5-.7-.4-.7-.3-.9-.1-.8.1-.9.3-.8.5-1.2v-.2l5.5-13.4v-.2l.1-.1v-.1l.1-.1v-.1l.1-.2v-.1l.1-.1.2-.5.3-.3.4-.4.4-.2c1.1-.2 1.8.4 2.6 1l.8.6.8.5.8.5.9.4 1 .4 1.1.2 1 .3 1.1.2c1.7.3 2.9.5 3.5 1.6l.2.6v.6l-.1.7-.3.5v.5l-1 2.5-.2.3v.3l.1.4.1.3.2.4.3.3.4.3.4.2 2.1.9 2 1.1 1.8 1.3 1.8 1.5c0 .2.3.4.4.6l.1.1.1.1v.1h.1v.1zM34.3 21.4l-.8-.4-.7-.4-.8-.5-.7-.4v.2l.1.1.1.4.2.3.2.3.2.3.4.4c.1.1.3.3.5.3l.4.3.5.2.6.2.5.2.7.1H37l.5-.1.7-.1.6-.2-1.2-.2-1.1-.4-1.1-.2-1.1-.4zM48.4 44h.1l.1-.1.1-.1.2-.1-24.1-9.9-.1.2v.5l.1.3.1.2.1.2.2.1.2.1L46.5 44l.5.1.4.1.5-.1.5-.1zm1.8-3.5l.1-1c-.1-.4-.1-.7-.3-1 0-.4-.2-.7-.3-1l-.6-.8s.1.1 0 0l-.2-.4h-.3l-.3.1-.3.1-.2.1-.3.3-.3.2-.3.2h-.6l-.3-.1h-.2l-.2-.2-.4-.4c-.2-.1-.2-.3-.2-.6v-.6l.1-.6.2-.2.1-.2.2-.2.2-.2h-.3l-.1-.1-.4-.2-.3-.1-.4-.1h-.4l-.4.1-.4.2-.2.2-.3.3-.2.3-.4.3-.3.1h-1l-.2-.2-.5-.4-.2-.5v-.7l.2-.5.1-.2.2-.2.1-.3.2-.1h-.1l-.1-.1h-.1l-.4-.2-.4-.2h-.8l-.4.1-.3.1-.3.3c-.1.1-.2.1-.2.3l-.3.3-.3.2-.4.2-.4.1h-.2l-.2-.1-.2-.1-.2-.1c-.3-.1-.3-.2-.5-.4l-.3-.6v-.6l.2-.6.7-.8.8-.7 1-.5 1-.2h.2l.1-.1h.3l-.1-.6-.1-.6.1-.5.1-.6-.6.1h-.6l-.6.1-.6.1-1-.1-.9-.1-.9-.2-.9-.3-1-.5-.9-.6c-.3-.2-.6-.4-.8-.8l-.7-.8-3.2 7.8-.1.4 24.3 9.8v-.3h-.1z"/><path d="M9.9 14.4h16.3c2.5 0 4.4 2 4.4 4.5v22c0 2.4-1.9 4.4-4.4 4.4H9.9c-2.4 0-4.4-2-4.4-4.4v-22c0-2.5 2-4.5 4.4-4.5z" fill="#fff"/><path class="prefix__shp1" d="M28.2 14.3c-.4-.1-.8.1-1.2.3-.3.4-.4.7-.4 1.1 0 .4.1.8.4 1.1.4.2.8.4 1.2.4l.7.1.5.4c.2.2.4.3.5.6l.1.7v23l-.1.6-.4.6-.6.4-.7.2h-16l-.7-.2-.5-.4c-.2-.2-.4-.3-.5-.6l-.1-.6V19l.1-.7c.1-.3.3-.4.5-.6l.5-.4.7-.1c.4-.1.8-.2 1-.5.2-.3.4-.7.4-1 0-.4-.2-.7-.4-1-.2-.3-.6-.4-1-.5-.6 0-1.2.2-1.8.4-.6.2-1.1.6-1.6 1-.4.4-.8 1-1 1.6L7.5 19v23l.3 1.8c.2.5.6 1.1 1.1 1.5.4.4.9.7 1.5 1a4 4 0 001.8.4h16a4 4 0 001.8-.4l1.5-1c.5-.4.8-1 1-1.5.3-.6.5-1.3.5-1.8V19a4 4 0 00-.5-1.8c-.2-.6-.5-1.2-1-1.5-.5-.5-.9-.8-1.5-1.1l-1.8-.3z"/><path d="M16 17.2h8.3c.4 0 .7-.2 1-.5.2-.3.4-.7.4-1 0-.3-.2-.7-.4-1-.3-.2-.6-.4-1-.4H24V13c0-.4-.1-.8-.4-1-.3-.4-.6-.5-1.1-.5-.4 0-.8.1-1.1.5-.2.2-.4.6-.4 1v1.3h-1.7V13c.1-.4-.1-.8-.3-1-.3-.4-.7-.5-1.1-.5-.4 0-.9.1-1.1.5-.3.2-.4.6-.4 1v1.3H16l-.5.1c-.2 0-.3.1-.5.3l-.3.5-.1.5.1.6.3.5.5.2.5.2z" fill="#328ccb"/><path class="prefix__shp1" d="M26.8 24.3l-.1.6-.4.4c-.1.2-.3.3-.4.3l-.6.2h-5.6c-.4 0-.8-.2-1.1-.4-.3-.3-.5-.7-.5-1.1 0-.4.2-.8.5-1.1.3-.2.7-.4 1.1-.4h5.6l.6.2.4.3.4.4.1.6zm-12.2 1.5c-.8 0-1.5-.7-1.5-1.5s.7-1.5 1.5-1.5 1.4.7 1.4 1.5-.6 1.5-1.4 1.5zm12.2 5l-.1.6-.4.4c-.1.2-.3.2-.4.3l-.6.2h-5.6c-.4 0-.7-.2-1.1-.5-.2-.2-.4-.6-.4-1s.2-.8.4-1c.4-.3.7-.5 1.1-.5h5.6l.6.1.4.4.4.4.1.6zM14.6 32c-.8 0-1.5-.7-1.5-1.5s.7-1.5 1.5-1.5 1.4.7 1.4 1.5-.6 1.5-1.4 1.5zm12.2 5.3l-.1.5-.4.5c-.1.2-.3.3-.4.3l-.6.2h-5.6c-.4 0-.8-.2-1.1-.4-.3-.4-.5-.7-.5-1.1 0-.4.2-.8.5-1.1.3-.2.7-.4 1.1-.4h5.6l.6.2.4.2.4.5.1.6zm-12.2 1.5c-.8 0-1.5-.8-1.5-1.5 0-.8.7-1.5 1.5-1.5s1.4.7 1.4 1.5c0 .7-.6 1.5-1.4 1.5z"/></svg>